<svg id="Layer_1" xmlns="http://www.w3.org/2000/svg" viewBox="0 0 98.27 38.94">
  <defs>
    <style>
      .cls-1,.cls-2{fill:#598495;stroke-width:0}.cls-2{fill:#00004c}
    </style>
  </defs>
  <path class="cls-1" d="m21.03 27.81-2.47-1.36v-2.72l2.47-1.37 2.48 1.37v2.72l-2.48 1.36zM26.65 26.83l-2.03-1.17v-2.33l2.03-1.17 2.03 1.17v2.33l-2.03 1.17zM24.54 30.04l-1.6-.93v-1.85l1.6-.93 1.61.93v1.85l-1.61.93zM20.81 31.96l-1.54-.89V29.3l1.54-.88 1.53.88v1.77l-1.53.89zM17.71 31.75l-.9-.52v-1.04l.9-.52.9.52v1.04l-.9.52zM19.76 33.43l-.71-.42v-.82l.71-.41.71.41v.82l-.71.42zM18.91 35.23l-.67-.38v-.77l.67-.38.68.38v.77l-.68.38zM17.91 33.8l-.63-.41v-.81l.63-.4.62.4v.81l-.62.41zM19.12 36.79l-.42-.27v-.54l.42-.27.42.27v.54l-.42.27zM18.06 36.3l-.4-.26v-.52l.4-.26.41.26v.52l-.41.26zM18.45 37.82l-.4-.26v-.52l.4-.26.41.26v.52l-.41.26zM18.81 38.94l-.32-.2v-.4l.32-.21.31.21v.4l-.31.2zM18.13 29.32l-.9-.59v-1.16l.9-.58.9.58v1.16l-.9.59zM23.76 23.02l-2.33-1.23v-2.65l2.29-1.33 2.3 1.33v2.56l-2.26 1.32z"/>
  <path class="cls-2" d="M29.34 25.28s.09.06.18-.48c.02-.15.06-.29.15-.46.09-.18.46-.36.5-.51.05-.15.07-.45.09-.5.02-.05.06-.08.17-.35.09-.23.08-.37.13-.5.04-.12.12-.18.13-.24.02-.13 0-.29-.04-.45-.03-.1.04-.25.01-.37s-.14-.22-.08-.29c.16-.18.12-.29.24-.41.06-.06.15.04.26-.04.11-.08.3-.45.42-.54.12-.09.23-.17.33-.25.09-.08.16-.14.19-.2.2-.39.28-.56.35-.99.06-.43.04-.99-.07-1.14-.21-.3-.55-.26-.72-.38-.17-.12-.37-.51-.6-.7-.11-.09-.24-.22-.33-.26-.08-.04-.14.05-.29.03-.3-.03-.31.04-.47-.14-.16-.19-.59-.19-.83-.27-.24-.08-.33.44-.34.25-.01-.22.04-.43-.02-.53-.09-.16-.32-.15-.49-.24-.28-.15-.76-.42-.9-.35s-.36.48-.43.36c-.11-.19.28-.46.23-.59-.03-.08-.31-.07-.53.03-.13.06-.26.01-.29.04-.08.06-.08.34-.29.35-.21 0-.49.26-.35 0 .07-.13.07-.14.15-.23.03-.04.03-.14.1-.23.27-.33.6-.45.6-.58 0-.13-.22-.14-.37-.5-.09-.23.01-.58-.2-.78-.13-.12-.53-.48-.67-.57-.36-.24-.42-.3-.92-.34-.5-.04-.81.09-.91-.05-.04-.05-.16-.17-.2-.21-.15-.12-.24.08-.34.04-.14-.05.12-.31-.1-.52-.22-.21-.23-.33-.49-.44-.13-.05-.22.09-.35.04-.07-.02 0-.04-.04-.07s.14-.08.13-.14c-.04-.21-.76-.32-.9-.48-.07-.08.04-.13-.07-.2s-.4.05-.46.08c-.12.06-.17.19-.46.19-.3 0-.46-.24-.69-.19-.23.05-.61 0-.78-.24-.09-.12-.29-.01-.37-.04-.08-.03-.13-.38-.28-.34-.14.04-.02.24-.06.34-.13.18-.23.48-.5.63-.22.12-.23-.26-.17-.57.54-.48.19-.66.08-.58-.22.16-.28.45-.66.53-.37.08-.68.24-.84.45-.16.22 0 .24-.21.41-.1.09-.13.21-.21.27-.08.06-.2.05-.25.18-.05.13.08.32.05.35-.03.03-.09 0-.23-.14-.29-.27-.44-.49-.79-.45-.35.04-.23.15-.5.24s-.48.37-.76.03c-.28-.34-.7-.44-.69-.95 0-.5.13-1.03.07-1.33-.06-.29-.01-.56-.27-.65-.26-.09-.49.02-.9.06-.41.04-.85.09-.97.02-.12-.07-.22.01-.06-.18s.26-.33.18-.51c-.07-.19-.29-.29-.1-.39.19-.1.29-.07.32-.42.03-.35.22-.88.12-1.02s-.05-.18-.45-.08c-.4.1-.63.11-.73.2-.1.09-.15.1-.13.36 0 .25.01.68-.13.75-.15.06-.35.06-.63.11s-.24.25-.52.23c-.28-.02-.55.06-.77-.26-.22-.32-.52-1.03-.71-1.23-.2-.2-.15-.31-.13-.68.01-.38-.03-.58.14-.88.18-.3.51-.42.11-.48-.4-.05-.71-.12-.91-.64-.2-.52-.38-.76-.54-.93-.17-.17-.15-.37-.38-.18-.23.18-.39.37-.6.18-.21-.19-.38-.82-.56-.99C3.56 1 3.61.75 3.19.82c-.42.07-.6.22-.96.08C1.87.75 1.33.53 1.1.33.85.17.72.05.4.01.09-.02 0 0 0 .16c0 .15.17.87.26 1.13.09.26.15.52.32.74s.29.28.07.36c-.22.08-.42.22 0 .41.42.19.66.4.66.6 0 .2-.16.21-.08.48s0 .41.35.67c.36.27.38.42.38.42l.28-.2s-.55-.37-.56-.61c0-.23-.07-.71-.17-.99s-.15-.5-.36-.91c-.22-.4-.34-.27-.4-.77C.69 1 .62.68.68.57c.06-.1.3-.11.42.13s.02.26.13.68c.11.42.16.67.37.86.21.19.23.27.34.52.12.25.36.26.39.48.04.22-.14.16.07.48.21.33.78.9.9 1.1.12.19.36.69.38.77.02.09.04.29-.02.48-.07.19-.14.32.21.63s.24.43.54.5c.3.07.27-.14.57.16.3.29.4.38.8.55.4.18.65.27.98.42s.55.13.8-.04c.26-.17.29-.2.53 0 .24.2.61.56.93.69.33.12.44-.06.65.09.21.14.13.3.49.26.36-.04.5-.11.68.13.19.24.62.51.66.68.04.17-.14.43.06.53.2.1.44-.08.59.09.15.17.11.42.35.52.25.1.59.11.82.23.23.13.31.41.43.32.12-.09 0-.14.02-.31.02-.17.01-.26.17-.33.16-.08.37-.23.55 0 .18.23.17.5.29.73.11.22.17 1 .16 1.25-.02.26.03.49-.16.69-.19.2-.32.21-.41.53-.09.33-.18.24-.4.6-.23.37-.16.27-.3.64-.13.36-.18.44-.12.66.06.22 0 .48.23.22.22-.26.25-.11.26-.05 0 .06-.04.27-.04.27s.15-.05-.18.21c-.33.25-.5.22-.47.44.02.22.03.46.09.62.06.16.06.17.34.36.28.19.47.7.64 1 .17.29.28.38.44.8.16.43.55.58.66.99.11.41-.11.46.13.69.24.23.8.29 1.23.58.43.29 1.3.56 1.03.67-.14.05 2.84-1.53 2.84-1.53v-2.82l2.99-1.72 2.92 1.69v2.53l2.67 1.55.02 2.45Z"/>
  <path class="cls-2" d="M16.03 5.86c-.1-.01-.19 0-.29 0-.08 0-.17 0-.25-.02a.17.17 0 0 1-.1-.07c-.03-.04-.03-.1-.08-.13-.03-.02-.07-.02-.11-.03l-.33-.06c-.39-.09-.75-.25-1.09-.45-.1-.06-.2-.09-.31-.12-.17-.04-.35-.07-.53-.07-.12 0-.24.01-.35.06-.04.01-.07.03-.1.05-.08.05-.15.09-.21.16-.03.03-.06.07-.05.11 0 .03.04.06.06.07.06.05.15.06.22.07h.33c.11 0 .22.05.33.09.08.03.15.06.23.08.09.02.18 0 .28.02.22.04.45.07.66.15.1.03.19.08.28.13l.12.09c.05.03.11.05.16.07.06.02.12.05.16.11.04.05.04.12.03.18 0 .03-.03.06-.02.1.01.04.06.06.1.07.08.02.16.02.24.02.18 0 .35-.02.52-.05.08-.01.16-.03.25-.04.05-.01.09-.06.12-.1.02-.04.02-.09.01-.13-.02-.07-.07-.13-.12-.19-.05-.06-.11-.11-.16-.17ZM15.23 7.02c-.06 0-.12-.02-.18-.01-.04 0-.08.01-.12.02-.06 0-.12.02-.18.02-.03 0-.06.01-.08.03-.03.02-.03.06-.02.09.01.03.03.06.06.07.03.02.07.03.1.04.07.02.14.03.21.03h.21c.04 0 .09-.01.13-.03.03-.01.06-.03.07-.06v-.08c-.01-.02-.03-.02-.05-.02h-.07a.219.219 0 0 1-.03-.05c-.01-.02-.02-.03-.03-.05ZM17.3 6.52a.51.51 0 0 0-.17-.07c-.04 0-.08-.01-.13-.02-.06 0-.11 0-.16.04-.03.02-.05.05-.05.09 0 .04.02.08.05.12.02.03.05.04.08.06.04.03.08.05.11.09.02.02.03.06.01.08-.02.03-.05.05-.08.06-.05.02-.11.02-.17.02-.08 0-.16 0-.24.02-.04 0-.09.02-.12.06-.03.03-.03.07-.03.11 0 .04.02.07.05.09.04.03.09.04.14.04.09 0 .17 0 .26-.02l.33-.06c.02 0 .05-.02.07 0 .03.02.05.05.07.08.04.05.08.1.14.13.07.04.15.05.23.05.05 0 .11-.02.16-.03.04-.01.07-.05.07-.1 0-.07-.02-.14-.02-.21 0-.04.02-.09.07-.1h.1c.1 0 .2.03.3.04.08.01.16.02.23.02.03 0 .07 0 .1-.02s.04-.06.05-.1c0-.04-.01-.09-.05-.11-.04-.03-.09-.05-.14-.07-.05-.02-.1-.03-.14-.05a.69.69 0 0 1-.18-.16c-.02-.03-.03-.07-.06-.08-.03-.01-.06-.01-.09-.02-.17-.03-.34-.07-.51-.09-.07 0-.15-.02-.22-.01-.03 0-.07 0-.08.02-.02.03 0 .06.02.08 0 0 .02.02.02.03ZM19.79 6.94c-.1.02-.2.02-.3.03-.05 0-.09.02-.13.04-.03.02-.07.04-.08.08 0 .04.01.08.04.11s.07.05.11.07c.03.01.06.02.09.02h.26c.05 0 .1 0 .15-.03.03-.01.06-.03.09-.05.02-.02.03-.06.03-.09s-.03-.06-.05-.08a.353.353 0 0 0-.13-.08c-.03 0-.08-.04-.08-.02Z"/>
  <path class="cls-1" d="M95.12 15.59c-2.51 0-3.16 2.06-3.16 3.53 0 1.69.76 3.5 3.16 3.5 2.61 0 3.15-2.19 3.15-3.5s-.58-3.53-3.15-3.53Zm.07 5.52c-.16 0-1.56.11-1.56-1.99 0-1.95 1.23-1.98 1.55-1.98.21 0 1.45 0 1.45 1.98s-1.4 1.99-1.45 1.99Z"/>
  <path class="cls-2" d="M41.89 21.04c-.86-.41-.85-1.63-.85-1.63h4.55c0-3.01-1.79-3.71-3.08-3.71-1.02 0-3.08.48-3.08 3.47 0 1.78.84 3.42 2.99 3.42 2.68 0 3.06-2.29 3.06-2.29h-1.69c-.2.61-1.03 1.14-1.89.74Zm.62-3.87c1.21 0 1.38 1.16 1.38 1.16h-2.76s.17-1.16 1.38-1.16ZM68.82 21.04c-.86-.41-.85-1.63-.85-1.63h4.55c0-3.01-1.79-3.71-3.08-3.71-1.02 0-3.08.48-3.08 3.47 0 1.78.84 3.42 2.99 3.42 2.68 0 3.06-2.29 3.06-2.29h-1.69c-.2.61-1.03 1.14-1.89.74Zm.62-3.87c1.21 0 1.38 1.16 1.38 1.16h-2.76s.17-1.16 1.38-1.16ZM54.58 19.36v-5.68h-1.55l.03 2.99s-.54-.97-1.74-.97c-3.02 0-2.86 3.47-2.86 3.47s-.17 3.42 3.08 3.42 3.05-3.23 3.05-3.23Zm-3.05 1.75s-1.48.25-1.48-1.88 1.48-2 1.48-2c.11 0 1.5 0 1.5 2s-1.5 1.88-1.5 1.88ZM60.48 15.69c-.87 0-3.08.42-3.08 3.27s1.41 3.66 2.86 3.63c.98 0 1.62-.72 1.72-.89v.89s.03.68-.69 1.06c-.66.35-1.72.29-3.03.29v1.47h2.14s1.11-.02 1.84-.5 1.29-1.21 1.29-2.61v-3.49c0-2.48-1.55-3.11-3.05-3.11Zm.07 5.41c-.16 0-1.56.16-1.56-1.94 0-1.95 1.23-1.94 1.56-1.94.3 0 1.42-.05 1.42 1.94s-1.37 1.94-1.42 1.94Z"/>
  <path class="cls-1" d="M79.6 15.79v3.28s.15 1.72-1.35 1.72-1.35-1.72-1.35-1.72v-3.28h-1.6v3.34c0 1.01.24 1.73.75 2.43.74 1.03 2.2 1 2.2 1s1.45.03 2.2-1c.51-.71.75-1.42.75-2.43v-3.34h-1.6ZM85.23 22.56v-3.28s-.15-1.81 1.35-1.81 1.35 1.81 1.35 1.81v3.28h1.63v-3.34c0-1.01-.27-1.82-.78-2.53-.74-1.03-2.2-1-2.2-1s-1.45-.03-2.2 1c-.51.71-.78 1.52-.78 2.53v3.34h1.63Z"/>
</svg>
