<svg xmlns="http://www.w3.org/2000/svg" xmlns:xlink="http://www.w3.org/1999/xlink" width="164" height="48"><defs><path id="a" d="M.045.075h45.328V33.11H.045z"/></defs><g fill="none" fill-rule="evenodd"><g transform="translate(2.069 .132)"><mask id="b" fill="#fff"><use xlink:href="#a"/></mask><path d="M1.896 33.11c-3.42-10.99.803-22.75 10.532-27.65 9.968-5.018 21.253-.993 26.887 7.178 1.96 2.84 3.15 7.818 3.26 8.542.92-1.224 3.343-2.503 2.687-5.7a25.593 25.593 0 00-1.541-3.372C37.257.31 22.82-3.082 11.478 3.13.613 9.084-2.332 23.05 1.896 33.11" fill="#152d5e" mask="url(#b)"/></g><path d="M43.777 14.833c3.42 10.99-.803 22.75-10.532 27.65-9.968 5.018-21.253.993-26.887-7.178-1.96-2.84-3.15-7.818-3.26-8.542-.92 1.224-3.343 2.503-2.687 5.7a25.593 25.593 0 001.541 3.372c6.464 11.798 20.902 15.19 32.243 8.976 10.865-5.953 13.8-19.92 9.582-29.978" fill="#152d5e"/><path d="M15.61 15.986l-3.65 2.51-.148-.215.922-.634-.172-.25.765-.526-.073-.107-.765.526-.16-.23.57-.39-.172-.25 1.295-.9-.073-.106-1.295.9-.172-.25-1.57 1.08-.114-.166 3.296-2.266-.073-.106-3.296 2.266-.163-.237.706-.486-.172-.25 1.667-1.147-.073-.106-1.667 1.146-.172-.25-1.222.84-.192-.333C7.114 17.544 6.57 18.02 4.41 20.21 1.693 22.966 1.072 24.876.507 26.9c-.502 1.8-.588 4.486.06 6.037.048-.6.226-1.795.775-2.64l.736-1.023c1.872-2.392 5.555-5.73 9.847-8.917l-.183-.317 2.087-1.435-.172-.25 1.754-1.206-.073-.106-1.754 1.206-.172-.25-1.218.838-.16-.234 3.65-2.51-.073-.106z" fill="#637ea8"/><g fill="#1e429a"><path d="M38.002 18.677c.135-.04.1-.32-.118-.46a5.45 5.45 0 01-.31-.242c-.1-.082-.196-.157-.298-.197s-.17-.08-.197-.115-.015-.065.044-.085c.12-.04.27-.2.1-.2s-.32.06-.338.16a.46.46 0 01-.185.26c-.068.046-.164.127-.23.124-.012-.001-.023-.004-.033-.01s-.018-.018-.024-.032c-.05-.12-.236-.48-.32-.5-.01-.003-.022-.004-.034-.005a.23.23 0 00-.102.016.206.206 0 00-.044.023l-.043.034a.357.357 0 00-.044.05.45.45 0 00-.053.084c-.1.2-.22.4-.32.48a.37.37 0 00-.039.037.58.58 0 00-.124.212c-.014.052-.01.095.03.1.013.005.022.015.03.03.04.082-.01.296-.025.355.002.03.013.035.028.034.064-.007.196-.14.305-.14.02 0 .04-.12.065-.117.054.003.118-.1.182-.1h.003c.03 0 .062.12.1.116s.06.052.084.044c.043-.014.078-.007.1-.042.084-.14.354-.145.574-.105s.406.227.558.247a2.64 2.64 0 00.693-.052m1.168-.436l.095.146.062.083c.04.05.077.084.107.094.096.032.393.1.4.208.004.027-.007.057-.038.1-.17.18-.203.24-.355.22s-.084.48.034.52l.592.2c.118.02.507-.04.5-.16s-.085-.6-.22-.72.186-.24.1-.34c-.064-.075-.146-.07-.2-.115a.2.2 0 01-.06-.065c-.068-.12-.1-.24-.203-.32s-.186.08-.17-.14.253-.36.354-.24.406.06.474 0c.02-.02.016-.05-.003-.086-.04-.08-.15-.2-.183-.274-.05-.12-.4-.22-.44-.18l-.32.26a.15.15 0 01-.056.025.25.25 0 01-.065.006c-.103-.004-.225-.053-.312-.052a.119.119 0 00-.073.02c-.205.162-.27.38-.186.52l.176.297m-2.812-4.047c.085-.14-.4-.48-.473-.2-.058.188.4.34.473.2m-25.915-4.052c.094.05.152.13.36.196v.007c0 .02.076.064.112.064.092 0 .236.055.353.097.07.025.107.055.14.105.01.015.014.028.014.042s.055.026.072.038l.075.037c.022.01.04.025.06.035.04.022.082.058.116.058.016 0 .03.008.042.013l.03.008.37.043s.248-.067.506-.04l.856.053c.214-.013.248-.093.27-.147s-.395-.16-.496-.146a8.79 8.79 0 01-.845 0l-.065-.005-.206-.006-.247.01a.21.21 0 01-.047-.001l-.045-.01-.043-.018-.043-.025-.16-.118c-.1-.067-.327-.28-.462-.306l-.108-.024-.032-.008-.255-.074c-.143-.04-.382-.093-.382-.133s-.067.187.057.253m-.675.574c.056.146.056.08.214.093s.282-.186.293-.253-.08-.2-.293-.173c-.1.01-.256.006-.425.003l-.26.276c.07-.001.416-.092.472.053m-.54.02l-.187.208c.014.005.03.006.05 0 .06-.017.098-.13.138-.208m.73-.754l-.184.182c.06.013.107.023.16.023.07 0 .065-.103.024-.205m.268 1.1h-.025l-.037-.001a.76.76 0 00-.284.05c-.08.04-.315-.067-.44.026-.078.06-.034.253.1.266s.338-.093.36-.013l.01.04v.001l.007.024.01.03.01.032.012.034.014.034.016.032.018.03.02.027.023.023.025.018c.014.008.02.01.027.012.016.004.023.004.03.005a.086.086 0 00.034-.005.13.13 0 00.046-.02c.203-.12.192-.226.248-.24s-.012-.306-.102-.373a.168.168 0 00-.038-.018l-.05-.01-.028-.003M26.538 13.274s.248-.227.157-.32a.86.86 0 00-.406-.174c-.076-.01-.152.048-.28.077a.66.66 0 01-.148.016c-.084 0-.158.015-.22.028l-.114.02c-.05.003-.092-.007-.126-.047-.1-.106-.462-.16-.496-.093-.045.1-.135.093-.045.28l.094.174c.05.075.094.114.143.106.08-.013.35-.027.383.08.02.066.064.128.14.148a.25.25 0 00.05.007.347.347 0 00.125-.023c.192-.066.35-.106.395-.186.02-.035.1-.057.16-.07.092-.018.2-.022.2-.022M38.52 32.7c.064.25.038.48-.062.6-.12.14.1.54.068.76s.05.36.287.36.32-.1.422-.36.118-.52.22-.74.186-.68.237-.8a2.2 2.2 0 00.136-.679l-1.15.758-.158.102z"/><path d="M36.752 18.497c-.22-.04-.5-.02-.574.12a.162.162 0 01-.1.07.42.42 0 01-.084.017.978.978 0 01-.1.004l-.185-.01-.065-.003c-.1 0-.242.132-.305.14-.014.001-.026-.004-.032-.02.02-.075.07-.3.03-.37a.062.062 0 00-.03-.03c-.038-.015-.043-.058-.03-.1a.583.583 0 01.165-.249c.1-.08.22-.28.32-.48a.53.53 0 01.042-.07l.046-.054.048-.04a.257.257 0 01.186-.036c.085.02.27.38.32.5.006.015.014.026.024.032s.02.01.033.01c.066.004.162-.078.217-.115a.48.48 0 00.2-.268c.017-.1.17-.16.338-.16s.017.16-.1.2c-.06.02-.072.05-.044.085s.095.075.197.115a1.18 1.18 0 01.298.197l.3.242c.22.14.253.42.118.46a2.64 2.64 0 01-.692.06c-.152-.02-.338-.2-.558-.24zm-.862-4.512c.084-.28.558.06.473.2s-.53-.012-.473-.2zM32.95 29.3l2.13-1.465-.17-.297.495-.367 2.68-2.074c-.035-.046-.065-.077-.082-.082-.068-.02-.27-.26-.355-.5a.39.39 0 00-.019-.044c-.087-.172-.308-.302-.458-.434a.67.67 0 01-.096-.1c-.085-.112-.058-.373-.058-.62-.001-.15-.01-.294-.062-.398l-.1-.222-.094-.235-.1-.23-.1-.2-.1-.183c.157-.046.385-.13.412-.017.034.14.22.44.254.66s.22.14.236.34.185.68.253.74c.05.045.235.236.345.38a.64.64 0 01.078.12 2.21 2.21 0 01.128.379l.04.2.05.296 2.748-2.342c-.058-.08-.064-.23-.128-.23-.085 0-.067.14-.237.24-.148.087-.296.25-.4.264a.094.094 0 01-.047-.005c-.118-.04.034-.14-.152-.32s-.253-.22-.253-.36a.243.243 0 00-.035-.1.75.75 0 00-.053-.071l-.067-.077c-.083-.092-.178-.192-.225-.284a.273.273 0 01-.027-.077c-.034-.2.254-.48.338-.3l.03.07.104.24.045.078c.048.076.1.144.2.188.22.12.423.32.524.36s.355-.22.44-.18a.12.12 0 01.027.021.46.46 0 01.035.04l.04.055.043.062.1.122 2.054-1.98a19.994 19.994 0 00-3.508-8 .57.57 0 01-.099.029c-.305.06-.5-.06-.574.06s-.203.34-.253.2.17-.38.084-.46-.44-.04-.5.02-.017.28.016.36c.014.032.03.102.038.17l.004.037v.038a.27.27 0 01-.005.06l-.007.02-.014.017c-.02.002-.027 0-.034-.004-.102-.06-.085-.26-.186-.24a.76.76 0 00-.27.12c-.032.025-.123.034-.2.057-.046.014-.086.032-.106.062-.044.07.002.247-.042.303a.04.04 0 01-.025.016c-.084.02-.152.1-.338-.04s-.186-.06-.237-.02a.76.76 0 01-.09.06.327.327 0 01-.05.024.32.32 0 01-.051.017l-.024.004c-.047.004-.084-.016-.1-.083l-.008-.202c-.01-.052-.034-.097-.1-.157-.152-.12-.034-.12.17-.04s.456.12.827-.02.524-.2.372-.28-.274-.334-.5-.374-.587.134-.96-.025l-.608-.26c-.152-.04-1.08-.52-1.502-.442-.14.027-.364.118-.6.23l-.192.093-.456.24-.15.084-.07.04-.055.032-.047.028-.042.026-.025.016-.02.014a.428.428 0 00-.06.075l-.08.122-.05.072a1.6 1.6 0 01-.125.154l-.077.076c-.22.2-.6.397-.923.476s-.715.66-.715.74c0 .02.008.054.02.094.036.12.106.3.08.346-.034.06.067.36.253.44s.507.06.524-.06a.26.26 0 01.05-.107c.053-.077.135-.152.188-.154.026-.001.046.017.05.062.016.18.185.46.152.58s0 .24.118.22.744-.18.744-.18.155-.077.172-.203a.184.184 0 00-.002-.057c-.034-.16.22-.38.27-.44s.236-.3.017-.38-.4-.1-.153-.34.4 0 .693-.36-.068-.46.254-.48l.066-.004.022-.001.05-.003.024-.001.05-.002.144-.004.057.001.055.004.053.007c.065.013.096.038.07.083-.005.008-.01.017-.018.026a.82.82 0 01-.115.111l-.08.062-.1.066-.096.066-.098.063-.094.057-.085.048c-.1.06-.156.145-.165.23a.35.35 0 00.064.229c.084.12.12.4.27.36a1.15 1.15 0 00.182-.073.798.798 0 01.26-.087.273.273 0 01.064.001l.044.004h.17l.015-.001.054-.003.055-.004.22-.017c.05 0 .288.28.153.32a.62.62 0 01-.145.023l-.325.01-.122.006-.108.007-.054.003-.33.024c-.072.01-.117.024-.117.046 0 .06.388.2.253.3-.084.062-.17.04-.262.007a.83.83 0 00-.178-.048.15.15 0 00-.03 0c-.08.008-.144.084-.193.176l-.018.035-.03.072-.048.136c-.05.16.084.44-.17.34l-.092-.033a.95.95 0 00-.292-.052.26.26 0 00-.123.025c-.034.02-.082.01-.142.005l-.048-.004a.447.447 0 00-.17.023l-.103.034c-.085.024-.132.022-.297.022h-.22l-.136.02s-.135-.1-.152-.26a.77.77 0 01.01-.18l.012-.104-.002-.042c-.004-.025-.015-.044-.036-.054a.22.22 0 00-.097-.012.62.62 0 00-.264.074.177.177 0 00-.078.078c-.05.12-.102.34-.034.44s.27.3.085.24-.422-.08-.558.04l-.055.05-.235.24-.082.088s-.422.04-.422.16 0 .28-.152.3-.355.08-.558.12-.185.14-.422.16-.27.14-.05.18.557.2.574.38-.017.38-.1.56c-.058.123-.405.04-.608.04s-.608-.08-.777 0c-.095.045-.126.2-.126.342l.001.05a1.32 1.32 0 00.014.146 1.08 1.08 0 00.025.12c.02.067.02.124.013.17a.298.298 0 01-.098.17c-.068.06-.085.24 0 .32a.46.46 0 01.06.074c.058.085.108.2.16.205.068.02.287-.06.372.04a.4.4 0 01.03.043c.063.096.124.24.168.246.007.001.014-.002.02-.01a.523.523 0 00.052-.1l.036-.075c.034-.065.072-.115.114-.085.085.06.287-.02.44-.04s.236-.22.4-.32.068-.1.017-.22.152-.26.27-.4.337-.02.388-.18.068-.44.203-.42.322.12.44.12.372-.22.44-.26a.18.18 0 01.08-.017c.085-.002.202.03.254.117a.19.19 0 01.022.06c.034.18.32.4.388.44.013.007.038.02.072.034l.12.05.046.02.335.157a.75.75 0 01.142.218.91.91 0 01.061.181.43.43 0 00.11.197l.02.02a.219.219 0 00.042.03.084.084 0 00.02.008c.023.004.028.003.033.001.014-.005.024-.02.027-.046.016-.14-.17-.6-.05-.57s.254-.04.254-.04-.322-.26-.44-.32-.338-.18-.44-.38-.355-.24-.338-.44.253-.08.4.08.473.38.6.518.304.2.355.38a.96.96 0 00.089.204c.06.1.133.206.164.256.02.03.035.138.05.267l.008.066.015.136c.018.157.036.304.06.347s.094.008.174-.053l.07-.057.035-.03.164-.155c.032-.03.073-.054.113-.08.067-.045.13-.098.14-.198s-.07-.184-.15-.247l-.12-.1c-.025-.022-.008-.045.028-.068.06-.04.172-.08.225-.13a.778.778 0 01.16-.125.15.15 0 01.081-.021c.025.002.047.016.064.046.064.113.038.54.062.66l.005.02c.034.08.373.2.44.3s.354.14.405.08a.05.05 0 01.024-.013.166.166 0 01.04-.005l.03.001c.1.01.25.062.297.076.034.01.1 0 .177-.017l.228-.062c.05-.015.1-.04.144-.054l.02-.006a.13.13 0 01.036-.002c.038.007.06.048.052.162l-.008.103c-.023.253-.08.58-.228.755-.17.2-.1.3-.27.3-.078 0-.15 0-.207.032-.055-.102-.13-.182-.233-.152-.053.016-.1.027-.166.04l-.066.016-.024.007-.053.015-.025.008-.064.026a.58.58 0 00-.079.044l-.02.014c-.017.012-.033.026-.05.04l-.02.018a.57.57 0 00-.06.072c-.17.24-.236.26-.27.18-.025-.06.263-.266.38-.407.04-.047.06-.087.042-.112-.068-.1-.474-.06-.693-.06s-.405-.16-.574-.2-.25.37-.418.57a.165.165 0 01-.14.067.45.45 0 01-.194-.068c-.1-.05-.177-.1-.244-.1a.384.384 0 01-.17-.06l-.072-.046-.068-.048-.13-.106-.192-.083-.034-.013-.067-.022a.443.443 0 00-.113-.022c-.12 0-.355-.26-.422-.26s-.253-.18-.118-.26c.06-.035.147-.02.217-.03.01-.001.02-.004.028-.006.063-.02.1-.072.063-.232l-.02-.075c-.134-.44-.592-.354-.7-.295s-.963.04-1.03.04-.557.2-.7.28-.422.18-.5.22-.422-.08-.575.02l-.074.052c-.17.128-.32.287-.364.287-.05 0-.203.14-.305.44a.99.99 0 00-.047.265c-.008.13-.001.243-.046.32a.172.172 0 01-.076.072c-.186.1-.586.26-.722.42a.7.7 0 00-.097.193c-.095.254-.186.65-.313.845-.17.26 0 .5.034.66s.152.46-.034.74-.17.42-.253.44c-.032.007-.028.024-.008.05.032.046.106.124.127.25.013.075-.005.15-.016.223l-.004.037a.34.34 0 00.004.11c.016.072.065.142.186.2.32.18.614.188.7.427.026.075.072.18.122.3l.243.5.283.3.173.168c.152.14.203.06.236-.08s.237-.16.473-.16.406.06.642.02.4-.384.493-.424a.8.8 0 01.656.065c.055.04.094.084.124.13.074.113.1.236.143.334a.29.29 0 00.038.056c.118.14.32.06.473-.08l.048-.043c.026-.023.042-.035.056-.037.02-.004.034.013.068.044a.72.72 0 00.1.076c.186.12.27.24.102.42s-.068.46-.17.74c-.01.024-.015.046-.02.066-.006.033-.008.05-.008.067s.004.034.007.046c.006.02.012.032.02.043s.02.024.028.032a.31.31 0 00.038.028l.046.026.172.1c.186.12.343.9.444 1.04a.294.294 0 01.04.158l.774-.532-.172-.25zm3.6 3.957l-1.668 1.147-.407-.594-.923.635-.856-1.247.43-.296-.298-.434-.548.377.292.596c.032.053.092.122.157.2l.065.08.062.084a.57.57 0 01.11.255c.008.1-.047.25-.095.377l-.046.136a.41.41 0 00-.015.078c-.003.036.001.066.017.088.084.12.135.3.287.46s.203.5.203.5a1.52 1.52 0 00.067.36l.027.216a.37.37 0 00.075.161.44.44 0 00.1.083c.063.037.12.064.17.076a.283.283 0 00.048.008.17.17 0 00.154-.065l.02-.02.027-.023.033-.025.04-.026.044-.027.048-.026.05-.026.053-.024a.802.802 0 01.35-.08c.22.02.536.056.756-.124s.54-.66.66-.798.4-.4.355-.56c-.023-.108-.112-.26-.13-.373-.002-.013.005-.026.005-.038s-.006-.02-.003-.03.003-.02.007-.028c.01-.015.018-.022.028-.028s.026-.013.042-.02l.063-.024c.184-.06.482-.12.495-.218a1.237 1.237 0 00-.045-.314l-.014-.06-.03-.12-.014-.054-.072.04-.172-.25zM11.077 10.745c-.056-.16-.338-.213-.395-.053-.05.14.45.213.395.053M10.897 11.336a.34.34 0 00.067-.005l.46-.066c.102-.013.124-.213.01-.226a.244.244 0 01-.053-.014l-.05-.023c-.056-.03-.1-.066-.163-.064a.108.108 0 00-.038.008c-.1.04-.45.213-.417.306.01.03.075.083.18.085m13.477.033c-.04-.094-.14-.386.077-.413s.623.28.613.067a2.37 2.37 0 01.004-.315.71.71 0 01.058-.244c.047-.1.133-.157.144-.202.003-.015-.002-.028-.02-.037-.072-.04-.165.054-.237-.146s.062-.346.144-.426.515-.6.752-.678.402-.386.236-.452-.494-.186-.7.026-.34.412-.587.346-.285-.42-.425-.6a.565.565 0 01-.085-.17.87.87 0 01-.03-.127l-.01-.064c-.03-.192-.034-.368-.133-.383a.117.117 0 00-.037.001l-.217.04s-.253-.053-.4-.014c-.206.052-.34.198-.457.167-.23-.062-.438.08-.497.096a1.508 1.508 0 01-.356.048 1.74 1.74 0 01-.514-.075l-.114-.033c-.058-.01.353.056.672 0l.1-.02.575-.124.185-.04c.203-.04.04-.134-.032-.144-.26-.034-.656-.16-.968-.18-.245-.015-.404.073-.65.08-.313.01-.687-.012-.932.166a.86.86 0 01-.169.094c-.17.072-.33.087-.347.1a1.28 1.28 0 00-.113.197c-.066.133-.13.268-.194.273-.014.001-.028-.004-.042-.018-.113-.106-.134-.372-.278-.266a.128.128 0 00-.024.022c-.07.078-.044.213-.054.346l-.004.04a.55.55 0 01-.018.078.31.31 0 01-.035.073c-.123.186-.473.16-.576.093l-.02-.012c-.078-.048-.167-.087-.397-.088h-.06l-.14.006c-.13.008-.262.03-.38.06-.262.067-.456.176-.392.286.058.1-.03.174-.12.196-.055.013-.1.008-.137-.022-.072-.08-.402.093-.38.253a.39.39 0 01.003.06c-.002.122-.057.24-.17.25-.02.001-.04 0-.06-.005a.239.239 0 00-.3.226c-.004.05-.06.094-.133.13a.98.98 0 01-.114.047l-.038.013a.89.89 0 01-.148.036h-.032a1.51 1.51 0 00-.225.014c-.107.017-.187.053-.094.133a.3.3 0 00.085.052c.08.028.15-.002.265.028.04.01.075.036.1.07a.62.62 0 01.05.055l.1.123a.58.58 0 00.11.125c.083.04.196 0 .247-.08s.123-.36.123-.36 0 .266.124.32.432-.04.515-.026.566.093.7.173c.084.05.243.1.374.155a.4.4 0 01.18.15c.04.076.065.233.085.4l.023.198.014.114c.01.068.02.118.033.135.05.067.226-.213.268-.28a.057.057 0 01.023-.02c.02-.01.05-.014.08-.013.08.004.18.04.226.1.072.093.236.32.227.413l-.005.037c-.012.077-.036.166-.076.16a.047.047 0 01-.022-.01c-.054-.047-.14-.042-.132-.112.001-.01.004-.04.01-.052.04-.106.06-.35-.02-.35h-.154s-.155-.036-.258.164a.49.49 0 00-.046.156c-.014.117.025.22.07.248.01.006.018.01.027.01.072 0 .237.001.237.054s-.175.214-.165.307c.002.023.013.06.028.105a2.7 2.7 0 00.158.374c.02.033.085.066.152.093a1.22 1.22 0 00.167.053c.062.013-.144.026-.093.12s.134.32.247.372a.62.62 0 01.051.028l.065.042.073.052c.125.093.26.2.285.278.04.106.288-.08.34-.093s.04.28.186.293h.05a.27.27 0 00.152-.047.95.95 0 00.118-.102.32.32 0 00.094-.199c.01-.07.004-.14.01-.2.01-.12 0-.213.134-.173s.206-.027.196-.16c-.005-.058-.03-.122-.036-.178a.133.133 0 01.01-.087.094.094 0 01.012-.018c.02-.023.053-.04.107-.05.135-.025.23-.102.315-.156a.285.285 0 01.15-.057c.134 0 .504.067.546 0s.217-.464.33-.477a.38.38 0 01.051-.002l.425.02a1.27 1.27 0 00.203-.02l.1-.026a2.37 2.37 0 00.289-.119c.117-.055.213-.102.26-.095.092.013.32.013.247-.066s-.175-.266-.33-.266-.18-.4-.14-.4a.9.9 0 01.223.095l.07.045.032.024c.05.04.085.085.082.126a.29.29 0 00.053.197c.043.053.112.083.215.057.206-.054.175-.254.134-.307s-.072-.187-.113-.28m-9.764 7.158l.172.25-2.13 1.465.17.297-.495.367-.752.565a1.16 1.16 0 01.127.074c.186.12.22-.06.22-.12s.104-.103.307-.083.453-.157.504-.097.152.3.253.22.136-.22.17.02.118.6.27.66.067.3.22.32.22-.38.17-.52l-.034-.104c-.055-.182-.135-.474-.203-.555-.084-.1.058-.348.227-.427s.433-.5.55-.6a.272.272 0 01.1-.06l.076-.034.04-.016.145-.066c.01-.006.02-.012.027-.02.04-.032.056-.07.025-.12a2.008 2.008 0 01-.164-.294.405.405 0 01-.037-.15c0-.12.1-.08.152 0s.253-.12.203-.22-.034-.24.084-.22c.03.005.054.001.073-.01.057-.03.066-.1.028-.17-.044-.07.08-.155.2-.15.016.001.03.004.046.01.06.02.186.038.305.04s.23-.01.254-.05c.05-.08-.187-.25-.187-.4 0-.08.05-.154.116-.212a.46.46 0 01.205-.108c.044-.007.094-.01.138-.012l.082-.008c.035-.006.06-.018.067-.04a.27.27 0 01.136-.132c.033-.01.06 0 .067.052.017.14 0 .38.135.38s.304-.18.355-.2.372-.1.44-.12.473-.06.422-.2l-.076-.2a.81.81 0 00-.076-.14c-.013-.015-.025-.02-.038-.02s-.026.008-.04.02c-.028.025-.057.07-.1.12-.067.1-.186.1-.22.02a.228.228 0 01-.01-.036c-.01-.063-.002-.158-.023-.2-.012-.023-.032-.03-.07-.004-.118.08-.135.16-.203.12s-.135-.18-.135-.18.17-.1.05-.28-.288-.14-.457-.04l-.055.032a.61.61 0 01-.182.074l-.086.024.203.295-1.754 1.206zm7.94 10.983c-.06-.03-.152-.05-.243-.082s-.18-.077-.23-.157a.73.73 0 00-.444-.285.11.11 0 00-.046.006.64.64 0 01-.137.037.349.349 0 01-.268-.058l-.44-.3c-.085-.08-.304-.14-.406-.14s-.085-.08-.236.16l-.025.043c-.088.165-.03.24-.133.246a.6.6 0 01-.112-.01c-.068-.01-.1-.02-.107-.03-.018-.028.118-.072.23-.2a.52.52 0 00.063-.08c.152-.24-.017-.38-.186-.32a.17.17 0 00-.105.086c-.027.05-.044.104-.17.142l-.046.012c-.27.06-.27-.14-.102-.18s.473-.22.473-.3-.034-.3-.17-.3-.1-.2-.304-.46-.492-.554-.695-.513-.318.234-.42.015-.22-.26-.287-.38c-.034-.06-.093-.06-.15-.052l-.08.01c-.024.001-.044-.003-.057-.018l-.05-.06-.001-.001s-.22.06-.1-.12.17-.52.12-.5-.135.3-.22.28-.017-.06-.186-.18-.44-.02-.44.08-.085.18-.085.18-.05-.06-.1-.18c-.025-.06-.097-.095-.177-.1s-.17.02-.228.08c-.052.052-.094.001-.132-.072-.05-.095-.1-.228-.138-.228-.085 0-.254.1-.338.28-.047.1-.057.227-.07.315-.008.06-.017.1-.037.105-.03-.006-.042-.03-.053-.067l-.008-.03-.012-.07a1.41 1.41 0 01-.007-.314c.01-.075.087-.18.1-.26.014-.047.008-.085-.043-.1a.109.109 0 00-.026-.004c-.134-.007-.317.205-.396.223a.48.48 0 00-.17.107 1.02 1.02 0 00-.184.212c-.102.16-.152.26-.254.32s-.253 0-.22-.06-.287-.28-.338-.2c-.032.05-.103.092-.2.136l-.166.083c-.152.08-.287-.1-.32-.18s-.1-.1-.118-.36a1.97 1.97 0 01.017-.386 1.94 1.94 0 01.068-.312c.05-.16-.254-.48-.372-.46s-.237.16-.355.14a.233.233 0 01-.037-.008c-.062-.018-.057-.043-.157-.05l-.06-.002c-.186 0-.034-.04 0-.22a.535.535 0 00.007-.107c-.001-.086-.012-.18.001-.266a.32.32 0 01.11-.206c.186-.16.118-.54 0-.558-.06-.01-.144.005-.232.02-.067.01-.136.023-.198.023a.603.603 0 01-.06-.003.195.195 0 00-.186.085.27.27 0 00-.034.234c.05.18-.084.3-.135.28s-.118-.12-.304.04-.253.1-.44-.08-.4-.36-.422-.64c-.03-.244-.046-.5-.004-.653a.413.413 0 01.022-.065.64.64 0 00.041-.17l-1.6 1.3a.43.43 0 00.117.147c.118.08.634.082.66.38.007.077.092.46.277.46s.432-.1.483-.04.203.3.304.16c.05-.07.08-.12.116-.152s.078-.048.155-.048c.095 0 .157.055.2.12l.093.12c.085.1.32.36.44.34s.27.16.355.1a.11.11 0 01.071-.018c.077.005.166.068.216.098.034.02.086.067.128.14a.5.5 0 01.065.288c-.017.24.23.292.33.352.1.052.203.165.287.26l.034.04c.085.1.27.12.32.18s.084.18.236.08.12-.28.12-.28.17-.04.253.04c.032.03.06.085.083.144.04.1.072.2.103.235.025.02.063.105.086.212s.032.237-.002.347c-.068.22-.05.44-.12.44a.056.056 0 00-.03.01c-.082.04-.236.208-.325.26a.558.558 0 00-.15.192l-.04.077c-.043.1-.07.178-.063.22.012.075.048.27.05.424a.576.576 0 01-.01.132c-.02.087-.078.176-.106.283a.463.463 0 00-.003.22c.05.22.405.28.422.48s.27.64.304.838.215.43.215.7.5.448.595.468.237.2.355.26a.56.56 0 01.165.132c.05.058.097.127.14.208a.52.52 0 01.046.131c.03.138.022.283.022.328a16.31 16.31 0 01-.101 1.038c-.05.36.122.698.02.798s-.292.14-.2.26-.12.2-.12.26.136.38.068.52-.12.34-.17.46a.864.864 0 01-.074.138.397.397 0 00-.06.282c.034.18-.135.12-.135.3s.152.1.118.32-.118.28-.118.44.085.38.085.44-.085.26-.203.42c-.08.107-.142.186-.17.257a.193.193 0 00-.015.102c.017.1.135.22.118.28s-.17.26-.152.4.17.08.203.18-.203.18-.1.28.236.08.203.32.186.3.236.36.152.2.237.2.152-.06.186-.28.27-.04.1.12-.253.24-.203.24.305.16.44.16.406-.08.457-.1.422-.08.456-.14-.287-.04-.44-.1a1.17 1.17 0 01-.456-.479c-.034-.12-.034-.36.084-.44.068-.046.192-.158.298-.256l.14-.13.036-.033a.67.67 0 00.131-.312c.003-.033 0-.058-.012-.068-.02-.015-.067-.018-.12-.02-.1-.003-.196-.002-.217-.04a.12.12 0 01-.017-.078c.006-.05.046-.114.152-.202a.85.85 0 00.112-.113c.05-.06.1-.12.122-.17a.65.65 0 01.087-.116c.067-.06.202-.18.253-.32s-.05-.06-.152-.06-.152-.22-.152-.32.253.04.44.08c.035.007.06.008.078.005.078-.017.02-.127.006-.224a.42.42 0 01.024-.197c.023-.057.06-.092.112-.062.1.06.625-.02.693-.04s.253-.38.32-.48.084-.2 0-.26-.32-.293-.353-.353c-.015-.026-.001-.108.023-.2l.094-.307c.006-.02.01-.01.014.017.01.063.017.226.053.372l.017.062c.025.08.06.15.112.187.013.01.026.017.04.022a1.29 1.29 0 00.198.056.39.39 0 00.07.006c.103-.001.2-.047.324-.18.22-.24.4-.4.405-.56a1.15 1.15 0 01.019-.118.78.78 0 01.032-.109.533.533 0 01.02-.048.284.284 0 01.08-.104c.08-.056.145-.022.237-.23l.018-.045c.102-.26.184-.063.286-.282s-.168-.5.034-.66.557-.36.557-.36.102-.06.305-.12.422-.02.5-.14l.025-.05.14-.344a.83.83 0 01.07-.123c.1-.14.22-.36.17-.46s.135-.54.118-.66-.17-.4.084-.64.524-.6.54-.698a.333.333 0 01.014-.05l.044-.12.056-.15c.044-.124.085-.258.1-.357a.29.29 0 00-.001-.04c-.017-.2-.203-.44-.32-.5"/><path d="M9.675 15.07l.18.313 1.175-.808.172.25.128-.09c-.02-.06-.048-.118-.108-.134-.152-.04-.055-.085-.09-.344s-.13-.195.24-.475.32-.4.608-.44.393.18.393.08.097-.64.097-.44.338.22.186.36-.067.16.05.16.338-.14.338-.14.27-.14.338-.02c.025.045.04.1.057.128.027.065.055.11.128.11a.31.31 0 00.158-.058c.084-.06.13-.154-.006-.242-.22-.14-.355-.12-.5-.28s-.102-.1-.254-.06-.152-.06-.203-.06-.135.04-.17-.04.017-.1.186-.1.372.06.372.06l.254-.1c.05-.02.32-.06.27-.24a.25.25 0 00-.094-.139.45.45 0 00-.081-.046c-.04-.018-.076-.032-.094-.055-.05-.06.1-.14.186-.18s.32 0 .32 0 .152.02.152-.06-.033-.18.068-.12 0 .24.152.2.186 0 .27.06-.017.3-.1.34-.22.12-.034.14l.32.02s.118-.14.17-.26.135-.04.203 0 .32.1.084.18-.287.18-.338.28c-.025.05-.042.1-.08.1a.15.15 0 01-.077.014.64.64 0 01-.13-.024.782.782 0 00-.206-.034c-.093 0-.15.03-.183.094a.52.52 0 00-.011.274c.013.06.035.108.064.11.1-.043.184-.043.286-.083s.507.04.608.02c.05-.01.118.04.18.087.046.035.088.07.117.076.01.002.018.001.024-.004s.013-.008.022-.008c.04-.002.096.05.157.103l.075.064c.1.08.067-.18.253-.02s.085.16.186.16a5.33 5.33 0 01.321.019s.016-.2.186-.16.32.26.304.1.017-.28-.118-.4-.355-.2-.39-.26-.068-.14-.017-.18c.025-.02.097-.015.18.008s.175.062.243.112.13.1.2.127.114.032.165-.008c.076-.06.16-.097.22-.138a.236.236 0 00.05-.042c.05-.06.17-.24.17-.24s-.507-.08-.575-.18a.79.79 0 00-.372-.24.089.089 0 00-.03.006c-.04.012-.1.04-.154.042a.144.144 0 01-.046-.005c-.037-.01-.07-.04-.09-.102-.06-.175-.067-.38-.113-.442a.035.035 0 00-.022-.017c-.067-.02-.777-.14-.878-.2s-.507-.2-.66-.3l-.26-.157a.593.593 0 00-.247-.083 1.42 1.42 0 00-.115.007l-.052.005-.117.012-.5.036c-.102-.02-.406.04-.524.06s.153.28-.1.34-.22.1-.17-.2-.17-.38-.39-.26-.575.2-.5.34l.014.026c.055.118-.01.2.1.328a.28.28 0 00.03.026l.06.048a.43.43 0 00.321.117l.076-.004a1.41 1.41 0 01.439.04s0 .24-.084.28-.22.04-.254.16a.19.19 0 01-.046.078c-.04.043-.097.067-.13.065-.016-.001-.027-.008-.027-.024 0-.06.085-.26-.034-.36-.06-.05-.097-.08-.137-.085-.03-.004-.06.007-.104.033l-.046.032-.046.034c-.04.03-.067.05-.1.053s-.04-.014-.06-.057l-.023-.05c-.067-.16-.27-.3-.27-.3s-.135-.2-.237-.3c-.05-.05-.122-.07-.184-.065s-.112.035-.12.085a.234.234 0 00-.003.038.4.4 0 00.022.122l.036.1.046.12c.034.1.058.192.06.273.001.06-.01.112-.043.137a.09.09 0 01-.037.017c-.12.02-.098.152-.216.192s-.17-.06-.17-.22-.05-.3-.017-.36c-.008-.027-.063-.008-.137.003a.45.45 0 01-.167-.003.27.27 0 00-.116-.003c-.093.018-.138.085-.047.13a.392.392 0 00.028.012.22.22 0 01.101.073c.012.015.02.032.028.05a.29.29 0 01.014.049c.004.03.005.046.003.06a.233.233 0 01-.013.05.15.15 0 01-.03.045.144.144 0 01-.052.034.243.243 0 01-.037.01l-.048.008c-.218.026-.666-.018-.827-.018h-.077l-.086.006c-.152.01-.306.02-.343-.068-.05-.12.152-.2.27-.2.053 0 .155.003.262-.013l.063-.012.044-.01.03-.01a.432.432 0 00.145-.081.345.345 0 00.063-.074c.01-.014.015-.027.02-.04l.01-.035.002-.03-.005-.028-.012-.024-.018-.02-.023-.018-.027-.015a.636.636 0 00-.252-.047c-.135 0-.237-.06-.388-.24s.1-.3.067-.38c-.014-.034-.053-.043-.104-.04a19.86 19.86 0 00-3.551 5.838c.038.098.027.255-.044.272-.02.004-.036-.004-.05-.02l-.244.686-.06.752c-.002.02 0 .045.001.07 1.386-1.364 2.132-1.94 4.09-3.202l.61-.393z"/><path d="M14.625 15.183l.298.434.863-.593.858 1.246-.677.466.018.026.025-.033c.118-.12.483-.068.585-.188.025-.03.06-.04.1-.04a.29.29 0 01.061.007l.03.008c.02.006.04.014.06.022a.84.84 0 01.118.063s.136-.16.136-.06-.034.36.068.36a.172.172 0 00.046-.007l.027-.008a.62.62 0 00.191-.104c.038-.034.05-.066.007-.08-.015-.005-.025-.01-.03-.017-.02-.02.01-.05.057-.082l.07-.046.05-.034.047-.036c.12-.1.35.014.417-.026s.118-.22.236-.22.17.18 0 .3-.186.42-.27.5-.034.18.1.16a.53.53 0 01.05-.005l.05-.001.14.004c.046 0 .1-.004.134-.018.118-.04.186.04.22.1s.135-.06.135-.06.22-.06.287.04c.017.025.033.034.046.03.04-.008.06-.116.022-.2-.05-.1-.12-.2-.17-.32s-.118-.16-.253-.12-.17-.04-.254-.1a.08.08 0 00-.082-.008l-.028.013c-.004.001-.003-.005.006-.024l.02-.04.083-.157.07-.142c.025-.06.093-.145.127-.222s.034-.147-.076-.177c-.22-.06-.287-.1-.32-.22a.75.75 0 00-.355-.34c-.068 0-.4.07-.408-.03s-.098-.4-.183-.5l-.456-.58c-.006-.005-.013-.01-.02-.012s-.014-.004-.022-.004c-.047 0-.114.056-.228.236s-.22.247-.314.245a.22.22 0 01-.092-.025c-.118-.06-.248.002-.366-.158s.23-.222.18-.322-.32-.14-.5-.16-.287-.24-.54-.26-.558.04-.642.04c-.01 0-.02.002-.028.006-.02.01-.032.037-.042.07l.745 1.084-.43.296zm13.3 1.157c.135.02.288-.1.405-.16s.287-.18.287-.36-.034-.34-.1-.42-.186-.1-.287-.08c-.153.03-.17.22-.27.22s-.22.04-.185.18c.008.035.02.067.028.097.03.1.048.157-.028.202a.07.07 0 00-.028.03c-.043.086.062.272.18.3"/><path d="M28.45 15.177c.07.108.168.246.294.306l.1.045.082.03.04.015c.133.05.24.1.156.15-.102.06-.347.296-.478.46a.508.508 0 00-.083.132c-.017.06.093.077.208.078l.085-.001.15-.01s-.102.14-.017.18c.053.025.092-.036.148-.085a.18.18 0 01.123-.055c.118 0 .34.076.484.096a.45.45 0 00.057.004c.085 0 .202-.086.274-.185.043-.06.07-.123.064-.175a.373.373 0 00-.038-.116.795.795 0 00-.3-.323c-.152-.08-.32-.44-.422-.52-.02-.015-.018-.036-.004-.062.023-.043.08-.1.14-.157l.034-.035c.055-.06.103-.12.107-.17a.074.074 0 00-.02-.058c-.074-.087-.242-.087-.4-.1a.47.47 0 01-.222-.056.171.171 0 00-.098-.037.15.15 0 00-.046.006.24.24 0 00-.085.048.65.65 0 00-.109.123c-.084.12-.186-.02-.287.02-.068.027-.1.092-.085.162s.034.147.068.197l.06.093m-13.625 8.45a.38.38 0 00-.305-.279c-.118.02-.372-.14-.506-.28s-.4-.14-.5-.14-.507.14-.507.14c-.017.2.152.14.355.14l.27-.007h.048c.094 0 .183.005.243.025.03.01.053.024.065.042.068.1.372.26.456.34s.355.1.372.02"/></g><path d="M32.133 32.087l3.65-2.51.148.215-.923.634.172.25-.765.526.073.107.765-.526.16.23-.57.39.172.25-1.295.9.073.106 1.295-.9.172.25 1.57-1.08.114.166-3.296 2.266.073.106 3.296-2.266.163.237-.706.486.172.25-1.667 1.147.073.106 1.667-1.147.172.25 1.222-.84.192.333c2.325-1.497 2.868-1.973 5.03-4.165 2.716-2.754 3.337-4.664 3.902-6.688.502-1.8.588-4.486-.06-6.037-.048.6-.226 1.795-.775 2.64l-.736 1.023c-1.872 2.392-5.555 5.73-9.847 8.917l.183.317-2.087 1.435.172.25-1.754 1.206.073.106 1.753-1.206.172.25 1.218-.838.16.234-3.65 2.51.073.106z" fill="#637ea8"/><path d="M58.5 31.26h2.018V18.2H58.5zm8.207-7.63l-1.23-1.46a18.55 18.55 0 00.135 1.884v7.208h-1.884V18.055h.27l7.207 7.745c.5.538 1.2 1.46 1.2 1.46l-.134-1.884V18.2h1.884v13.204h-.25l-7.207-7.765zm10.61-5.43h8.13v1.787h-6.093v5.247h5.535v1.807h-5.535v4.228h-2.037zm13.857 7.947c2.595 0 3.632-1.134 3.632-3.075 0-1.96-1.076-3.094-3.632-3.094H90.02v6.17h1.153zm5.862 5.112H94.7l-2.345-3.44-1.096.077h-1.23v3.364h-2.037V18.2h3.267c3.613 0 5.63 1.884 5.63 4.882 0 2.018-.903 3.402-2.614 4.15l2.768 4.036zm9.418-3.556l-1.634-4.074c-.327-.77-.653-1.94-.653-1.94s-.308 1.172-.634 1.94l-1.634 4.074h4.555zm-2.364-9.648h.23l5.727 13.204h-2.114l-.75-1.845h-5.977l-.75 1.845h-1.96l5.593-13.204zm11.3 8.303c2.575 0 3.613-1.2 3.613-3.2s-1.057-3.2-3.613-3.2h-1.172v6.38h1.172zm-3.2-8.168h3.287c3.613 0 5.612 1.94 5.612 4.978 0 3.018-2.018 4.978-5.612 4.978h-1.25v3.114H112.2V18.2zm11.37.01h8.303v1.787h-6.265v5.074h5.554v1.75h-5.554v2.672h6.535v1.788h-8.572zm14.74 11.272c3.402 0 4.997-1.96 4.997-4.747s-1.595-4.747-4.997-4.747h-1.422v9.495h1.422zM134.84 18.2h3.594c4.2 0 6.977 2.614 6.977 6.534s-2.768 6.535-6.977 6.535h-3.594V18.2zm13.186 13.06h2.018V18.2h-2.018zm12.166-3.557l-1.633-4.074c-.327-.77-.654-1.94-.654-1.94s-.308 1.172-.634 1.94l-1.634 4.074h4.555zm-2.364-9.648h.23l5.728 13.204h-2.114l-.75-1.845h-5.977l-.75 1.845h-1.96l5.593-13.204z" fill="#1e429a"/></g></svg>